#!OML:ASF E:\Mandelcareful walks\Project 1\Capture day 1\Session 1\Subject1.ASF
:FULLY-SPECIFIED
:DEGREES
341
root -17.3145 14.5483 -2.15129 -318.712 87.7545 -335.708
lowerback 24.0369 0.540789 -8.01479
upperback 6.14082 -0.688452 0.938578
thorax -6.42656 -0.0725898 5.80976
lowerneck -27.9558 1.89204 -2.01821
upperneck 17.555 3.94904 -2.22482
head 10.1753 1.3855 0.171958
rclavicle 1.55052e-014 -1.66979e-014
rhumerus -29.874 3.93268 -79.2957
rradius 65.3373
rwrist -4.94623
rhand -17.3424 -22.1582
rfingers 7.12502
rthumb 8.90493 -51.9503
lclavicle 1.55052e-014 -1.66979e-014
lhumerus -23.3807 -31.3236 72.8312
lradius 88.8531
lwrist 14.4266
lhand -27.822 -15.5969
lfingers 7.12502
lthumb -1.21403 14.3794
rfemur -49.4171 -19.1221 1.78568
rtibia 74.7341
rfoot -6.96921 -16.4092
rtoes -14.5789
lfemur -52.8815 15.1511 -20.1984
ltibia 71.8355
lfoot -31.3861 8.74778
ltoes -7.69179
342
root -17.2393 14.5887 -2.18108 -312.535 87.7913 -329.399
lowerback 24.0257 0.498324 -8.42128
upperback 6.20589 -0.833169 0.881544
thorax -6.31392 -0.142842 6.02059
lowerneck -28.118 1.70259 -2.28016
upperneck 17.9005 3.72127 -1.85836
head 10.3142 1.2995 0.311506
rclavicle 8.94531e-015 5.96354e-015
rhumerus -30.4956 2.97246 -79.1425
rradius 62.9553
rwrist -6.4583
rhand -17.644 -23.8183
rfingers 7.12502
rthumb 8.6139 -53.6226
lclavicle 8.94531e-015 5.96354e-015
lhumerus -22.2984 -31.9142 72.0446
lradius 88.92
lwrist 13.9141
lhand -27.0413 -14.1551
lfingers 7.12502
lthumb -0.459954 15.8241
rfemur -50.4219 -19.4016 2.25707
rtibia 74.8089
rfoot -7.65772 -13.8977
rtoes -14.1003
lfemur -52.0924 15.0835 -20.4929
ltibia 71.2315
lfoot -31.5288 8.77851
ltoes -8.30986
343
root -17.1634 14.6198 -2.21885 -318.673 87.3205 -335.651
lowerback 23.6801 0.661595 -8.83599
upperback 6.22818 -0.698283 0.8281
thorax -6.12452 -0.087184 6.15466
lowerneck -28.1299 1.58339 -2.57429
upperneck 18.0753 3.60213 -1.53799
head 10.3672 1.26103 0.455542
rclavicle -3.18055e-015 -2.06736e-014
rhumerus -30.9716 2.31672 -78.9103
rradius 60.5717
rwrist -8.14667
rhand -18.2804 -24.7626
rfingers 7.12502
rthumb 7.99973 -54.5912
lclavicle -3.18055e-015 -2.06736e-014
lhumerus -21.1637 -32.3901 71.4774
lradius 88.8051
lwrist 13.627
lhand -26.3513 -13.5613
lfingers 7.12502
lthumb 0.206484 16.4183
rfemur -52.0217 -19.047 2.99363
rtibia 74.2999
rfoot -8.05553 -11.2598
rtoes -17.3884
lfemur -51.5814 15.5168 -20.7814
ltibia 70.7261
lfoot -31.7893 8.95847
ltoes -9.08341
344
root -17.0827 14.6583 -2.24539 -321.81 87.16 -338.861
lowerback 23.4337 0.748823 -8.60871
upperback 6.41895 -0.508757 0.590337
thorax -5.82862 -0.0132315 5.69996
lowerneck -28.917 1.29946 -2.59411
upperneck 18.5997 3.20716 -1.30323
head 10.691 1.09121 0.487942
rclavicle -2.14687e-014 -1.39149e-014
rhumerus -31.0741 0.955023 -78.865
rradius 58.1925
rwrist -9.52398
rhand -18.256 -25.179
rfingers 7.12502
rthumb 8.02329 -55.0067
lclavicle -2.14687e-014 -1.39149e-014
lhumerus -19.2 -33.294 70.3256
lradius 88.5793
lwrist 13.0934
lhand -25.5476 -13.4348
lfingers 7.12502
lthumb 0.982721 16.5427
rfemur -53.253 -18.778 3.96344
rtibia 73.2362
rfoot -8.56254 -9.49789
rtoes -19.5516
lfemur -50.9915 15.6748 -20.8406
ltibia 70.2051
lfoot -31.9724 9.05856
ltoes -9.39799
345
root -17.0016 14.7004 -2.26164 -321.438 87.2123 -338.581
lowerback 23.3308 0.612452 -8.95841
upperback 6.44627 -0.73602 0.82133
thorax -5.69395 -0.129725 6.21741
lowerneck -28.8684 1.32412 -2.94358
upperneck 18.6075 3.42851 -1.46399
head 10.6832 1.14541 0.522682
rclavicle -3.22031e-014 1.94809e-014
rhumerus -31.1749 1.05749 -78.4571
rradius 56.2305
rwrist -10.7099
rhand -17.1808 -26.2306
rfingers 7.12502
rthumb 9.06087 -56.0159
lclavicle -3.22031e-014 1.94809e-014
lhumerus -18.3179 -32.844 70.2121
lradius 88.5203
lwrist 12.0494
lhand -24.9629 -13.4895
lfingers 7.12502
lthumb 1.54743 16.4846
rfemur -54.2408 -18.6123 4.93002
rtibia 71.7438
rfoot -9.17867 -8.57137
rtoes -18.6117
lfemur -50.4023 15.4859 -20.8336
ltibia 69.6753
lfoot -32.1266 9.16936
ltoes -9.556
346
root -16.9228 14.7369 -2.26984 -321.675 87.2277 -338.94
lowerback 23.491 0.546431 -8.89407
upperback 6.35115 -0.83548 0.756505
thorax -5.86792 -0.167557 6.14047
lowerneck -28.9363 1.28421 -2.84963
upperneck 18.7259 3.38282 -1.61811
head 10.7448 1.10777 0.445155
rclavicle -2.06736e-014 1.90833e-014
rhumerus -31.4838 0.353861 -78.329
rradius 54.3866
rwrist -11.3612
rhand -15.759 -26.8533
rfingers 7.12502
rthumb 10.4327 -56.5744
lclavicle -2.06736e-014 1.90833e-014
lhumerus -17.2843 -32.9575 69.8668
lradius 88.48
lwrist 11.5864
lhand -24.9324 -13.7808
lfingers 7.12502
lthumb 1.57685 16.1931
rfemur -55.1113 -18.2513 5.8177
rtibia 69.8712
rfoot -9.86813 -7.7795
rtoes -16.513
lfemur -49.8471 15.2881 -20.7614
ltibia 69.1268
lfoot -32.2659 9.32631
ltoes -9.65823
347
root -16.8426 14.7735 -2.27182 -323.014 87.1809 -340.356
lowerback 24.0141 0.439928 -8.91528
upperback 6.09113 -1.05258 0.75058
thorax -6.38658 -0.241233 6.22362
lowerneck -29.0532 1.38673 -2.86474
upperneck 19.0103 3.56007 -1.67078
head 10.8709 1.17199 0.461655
rclavicle 1.19271e-014 -1.23246e-014
rhumerus -31.9017 0.0174911 -78.1487
rradius 52.6742
rwrist -11.7843
rhand -14.3519 -26.9825
rfingers 7.12502
rthumb 11.7898 -56.6307
lclavicle 1.19271e-014 -1.23246e-014
lhumerus -16.7285 -32.7398 69.9428
lradius 88.4151
lwrist 11.3735
lhand -24.9444 -13.9988
lfingers 7.12502
lthumb 1.56524 15.9752
rfemur -55.882 -17.6791 6.64171
rtibia 67.6731
rfoot -10.2499 -7.12829
rtoes -16.6223
lfemur -49.2048 15.1853 -20.6318
ltibia 68.5438
lfoot -32.3969 9.36018
ltoes -9.10119
